<svg width="32" height="32" viewBox="0 0 32 32" fill="none" xmlns="http://www.w3.org/2000/svg">
<path d="M31.5 16C31.5 24.5604 24.5604 31.5 16 31.5C7.43959 31.5 0.5 24.5604 0.5 16C0.5 7.43958 7.43959 0.5 16 0.5C24.5604 0.5 31.5 7.43958 31.5 16Z" fill="#EAEFFC" stroke="#168CFD"/>
<path d="M25.9542 15.3337L16.251 6.94964C16.1822 6.89016 16.0919 6.85714 15.9983 6.85714C15.9046 6.85715 15.8144 6.89019 15.7455 6.94968L11.309 10.7845V9.08301C11.309 8.99051 11.2697 8.90179 11.1998 8.83639C11.1299 8.77098 11.0352 8.73424 10.9364 8.73424H10.1912C10.0924 8.73424 9.99757 8.77098 9.9277 8.83639C9.85782 8.90179 9.81858 8.99051 9.81858 9.08301V12.0727L6.04574 15.3338C5.99067 15.3814 5.95221 15.4434 5.9354 15.5118C5.91858 15.5802 5.9242 15.6517 5.9515 15.717C5.9788 15.7824 6.02652 15.8385 6.08842 15.8781C6.15033 15.9176 6.22355 15.9388 6.29851 15.9388H8.16634C8.26515 15.9388 8.35992 15.9755 8.4298 16.0409C8.49967 16.1063 8.53893 16.1951 8.53893 16.2876V24.7941C8.53893 24.8866 8.57819 24.9753 8.64807 25.0407C8.71794 25.1061 8.81271 25.1429 8.91152 25.1429H23.085C23.1838 25.1429 23.2785 25.1061 23.3484 25.0407C23.4183 24.9753 23.4576 24.8866 23.4576 24.7941V16.2876C23.4576 16.1951 23.4968 16.1063 23.5667 16.0409C23.6366 15.9755 23.7313 15.9388 23.8302 15.9388H25.7014C25.7764 15.9388 25.8496 15.9176 25.9115 15.8781C25.9734 15.8385 26.0212 15.7824 26.0485 15.717C26.0758 15.6517 26.0814 15.5801 26.0645 15.5117C26.0477 15.4434 26.0092 15.3813 25.9542 15.3337ZM13.9117 19.0045H18.0848C18.1836 19.0045 18.2784 19.0413 18.3482 19.1067C18.4181 19.1721 18.4574 19.2608 18.4574 19.3533V24.4453H13.5391V19.3533C13.5391 19.2608 13.5784 19.1721 13.6483 19.1067C13.7181 19.0413 13.8129 19.0045 13.9117 19.0045Z" fill="#168CFD"/>
</svg>
