<svg width="212" height="190" viewBox="0 0 212 190" fill="none" xmlns="http://www.w3.org/2000/svg">
<path d="M82.2353 96.9992C78.3262 97.0236 74.4534 96.4782 70.8688 95.3985C67.2842 94.3188 64.0682 92.7289 61.4298 90.7322C55.2673 86.0746 52.2524 79.3197 53.1582 72.1994C53.911 65.8526 57.7521 59.8704 64.0537 55.2307C67.0604 52.9789 70.7 51.1761 74.7493 49.9327C78.7985 48.6894 83.1721 48.0318 87.6017 48.0002C91.7053 47.9877 95.7668 48.5733 99.5219 49.719C103.277 50.8647 106.642 52.5447 109.397 54.6498C112.537 57.108 114.907 59.9901 116.357 63.1142C117.806 66.2383 118.305 69.5364 117.82 72.8006C116.898 80.0367 112.837 86.1824 106.077 90.5728C99.605 94.7416 91.0759 97.0406 82.2353 96.9992ZM87.6017 54.8495C75.0954 54.8495 64.2958 62.7343 63.0154 72.8C62.3524 78.0118 64.4343 82.8617 68.7273 86.1064C70.4335 87.4069 72.5211 88.4403 74.8506 89.1376C77.18 89.8349 79.6977 90.18 82.2353 90.1499C93.9025 90.1499 106.383 84.5992 107.963 72.1987C108.328 69.881 107.995 67.5364 106.985 65.3122C105.976 63.088 104.312 61.0325 102.099 59.2753C100.267 57.8747 98.0287 56.7567 95.531 55.9942C93.0332 55.2317 90.3315 54.8416 87.6017 54.8495Z" fill="#F7FAFC"/>
<path d="M129.601 97C128.511 97.0017 127.423 96.9358 126.349 96.8031C123.526 96.459 120.832 95.7129 118.43 94.6102C116.028 93.5074 113.969 92.0711 112.378 90.3886C108.904 86.7354 107.438 81.8402 108.137 76.2321L111.326 50.6644C111.442 49.7534 112.066 48.9122 113.059 48.3253C114.052 47.7385 115.335 47.454 116.625 47.5343C117.915 47.6146 119.108 48.0531 119.941 48.7536C120.773 49.4541 121.179 50.3593 121.067 51.2707L117.878 76.8381C116.964 84.1688 120.769 89.0902 128.056 90.0026C130.557 90.3156 135.05 89.83 139.484 87.4307C144.012 84.9803 149.677 79.916 150.95 69.7055C152.412 57.9913 148.173 47.935 138.693 40.6234C128.754 32.9581 113.708 28.9065 95.1832 28.9065C61.1317 28.9065 31.0042 48.4654 28.0239 72.5064C27.4407 77.0294 27.9016 81.5893 29.3886 86.008C29.6922 86.8984 29.4825 87.8375 28.8057 88.6187C28.1289 89.4 27.0404 89.9593 25.7797 90.1737C24.519 90.3881 23.1892 90.2401 22.0831 89.7621C20.9769 89.2841 20.1849 88.5153 19.8813 87.6249C18.1464 82.4803 17.6064 77.1709 18.2821 71.904C20.2296 58.3798 29.1335 45.8299 43.3068 36.6323C57.4801 27.4347 75.9381 22.2285 95.1832 22C116.525 22 134.064 26.827 145.905 35.9591C157.125 44.6121 162.376 56.812 160.691 70.3115C159.107 83.0244 151.518 89.6192 145.431 92.9131C140.918 95.4471 135.364 96.8809 129.601 97Z" fill="#F7FAFC"/>
<path d="M83.3355 123.998C67.3076 124.092 51.7819 119.916 39.6626 112.25C39.1802 111.941 38.7859 111.565 38.5024 111.145C38.2189 110.724 38.0517 110.267 38.0102 109.799C37.9687 109.331 38.0539 108.861 38.2608 108.418C38.4677 107.974 38.7924 107.564 39.2162 107.212C39.6399 106.86 40.1545 106.572 40.7305 106.365C41.3065 106.159 41.9327 106.037 42.5731 106.007C43.2135 105.977 43.8557 106.04 44.4629 106.192C45.0701 106.344 45.6304 106.581 46.1118 106.891C56.4489 113.41 69.6816 116.955 83.3355 116.862C94.2838 116.862 100.909 116.328 111.224 113.161C111.815 112.979 112.449 112.884 113.091 112.882C113.732 112.879 114.368 112.969 114.962 113.146C115.556 113.323 116.096 113.584 116.552 113.914C117.008 114.243 117.37 114.635 117.619 115.068C117.867 115.5 117.997 115.963 118 116.432C118.003 116.901 117.88 117.365 117.637 117.799C117.395 118.233 117.038 118.628 116.586 118.961C116.135 119.294 115.598 119.558 115.007 119.74C103.212 123.361 95.3965 123.998 83.3355 123.998Z" fill="#F7FAFC"/>
<path d="M150.079 124.673C136.01 140.017 115.307 149.182 92.2571 150.268C69.207 151.354 45.5758 144.278 26.2568 130.506C27.3946 131.472 28.5561 132.425 29.7505 133.356C49.0192 148.379 73.2722 156.489 97.1739 155.902C121.076 155.315 142.668 146.079 157.202 130.226C171.735 114.373 178.019 93.2012 174.67 71.3686C171.322 49.536 158.616 28.8309 139.347 13.8081C138.153 12.8769 136.941 11.9791 135.718 11.1053C153.658 26.3818 165.155 46.6937 167.828 67.8348C170.501 88.9759 164.146 109.327 150.079 124.673Z" fill="#F7FAFC"/>
<path d="M89.5643 157.616C71.8502 157.616 54.5338 152.994 39.8051 144.335C25.0763 135.675 13.5966 123.367 6.81769 108.967C0.0387831 94.5665 -1.73486 78.7208 1.721 63.4335C5.17686 48.1462 13.707 34.1039 26.2328 23.0824C38.7586 12.0609 54.7174 4.55515 72.0912 1.51432C89.465 -1.52651 107.473 0.0341255 123.839 5.99893C140.205 11.9637 154.193 22.0648 164.034 35.0247C173.876 47.9847 179.129 63.2215 179.129 78.8083C179.129 99.7095 169.692 119.755 152.896 134.534C136.099 149.313 113.318 157.616 89.5643 157.616ZM89.5643 3.75282C72.6937 3.75282 56.202 8.15474 42.1746 16.4019C28.1472 24.6491 17.2141 36.3712 10.758 50.0858C4.30194 63.8004 2.61275 78.8915 5.90404 93.4508C9.19534 108.01 17.3193 121.384 29.2486 131.88C41.178 142.377 56.3768 149.525 72.9233 152.421C89.4697 155.318 106.621 153.831 122.207 148.15C137.793 142.47 151.115 132.85 160.488 120.507C169.861 108.164 174.864 93.6528 174.864 78.8083C174.864 68.9518 172.657 59.1919 168.371 50.0858C164.084 40.9796 157.801 32.7056 149.88 25.736C141.959 18.7665 132.556 13.238 122.207 9.46607C111.858 5.69418 100.766 3.75282 89.5643 3.75282Z" fill="#F7FAFC"/>
<path d="M82.2353 96.9992C78.3262 97.0236 74.4534 96.4782 70.8688 95.3985C67.2842 94.3188 64.0682 92.7289 61.4298 90.7322C55.2673 86.0746 52.2524 79.3197 53.1582 72.1994C53.911 65.8526 57.7521 59.8704 64.0537 55.2307C67.0604 52.9789 70.7 51.1761 74.7493 49.9327C78.7985 48.6894 83.1721 48.0318 87.6017 48.0002C91.7053 47.9877 95.7668 48.5733 99.5219 49.719C103.277 50.8647 106.642 52.5447 109.397 54.6498C112.537 57.108 114.907 59.9901 116.357 63.1142C117.806 66.2383 118.305 69.5364 117.82 72.8006C116.898 80.0367 112.837 86.1824 106.077 90.5728C99.605 94.7416 91.0759 97.0406 82.2353 96.9992ZM87.6017 54.8495C75.0954 54.8495 64.2958 62.7343 63.0154 72.8C62.3524 78.0118 64.4343 82.8617 68.7273 86.1064C70.4335 87.4069 72.5211 88.4403 74.8506 89.1376C77.18 89.8349 79.6977 90.18 82.2353 90.1499C93.9025 90.1499 106.383 84.5992 107.963 72.1987C108.328 69.881 107.995 67.5364 106.985 65.3122C105.976 63.088 104.312 61.0325 102.099 59.2753C100.267 57.8747 98.0287 56.7567 95.531 55.9942C93.0332 55.2317 90.3315 54.8416 87.6017 54.8495Z" fill="#F7FAFC"/>
<path d="M129.601 97C128.511 97.0017 127.423 96.9358 126.349 96.8031C123.526 96.459 120.832 95.7129 118.43 94.6102C116.028 93.5074 113.969 92.0711 112.378 90.3886C108.904 86.7354 107.438 81.8402 108.137 76.2321L111.326 50.6644C111.442 49.7534 112.066 48.9122 113.059 48.3253C114.052 47.7385 115.335 47.454 116.625 47.5343C117.915 47.6146 119.108 48.0531 119.941 48.7536C120.773 49.4541 121.179 50.3593 121.067 51.2707L117.878 76.8381C116.964 84.1688 120.769 89.0902 128.056 90.0026C130.557 90.3156 135.05 89.83 139.484 87.4307C144.012 84.9803 149.677 79.916 150.95 69.7055C152.412 57.9913 148.173 47.935 138.693 40.6234C128.754 32.9581 113.708 28.9065 95.1832 28.9065C61.1317 28.9065 31.0042 48.4654 28.0239 72.5064C27.4407 77.0294 27.9016 81.5893 29.3886 86.008C29.6922 86.8984 29.4825 87.8375 28.8057 88.6187C28.1289 89.4 27.0404 89.9593 25.7797 90.1737C24.519 90.3881 23.1892 90.2401 22.0831 89.7621C20.9769 89.2841 20.1849 88.5153 19.8813 87.6249C18.1464 82.4803 17.6064 77.1709 18.2821 71.904C20.2296 58.3798 29.1335 45.8299 43.3068 36.6323C57.4801 27.4347 75.9381 22.2285 95.1832 22C116.525 22 134.064 26.827 145.905 35.9591C157.125 44.6121 162.376 56.812 160.691 70.3115C159.107 83.0244 151.518 89.6192 145.431 92.9131C140.918 95.4471 135.364 96.8809 129.601 97Z" fill="#F7FAFC"/>
<path d="M83.3355 123.998C67.3076 124.092 51.7819 119.916 39.6626 112.25C39.1802 111.941 38.7859 111.565 38.5024 111.145C38.2189 110.724 38.0517 110.267 38.0102 109.799C37.9687 109.331 38.0539 108.861 38.2608 108.418C38.4677 107.974 38.7924 107.564 39.2162 107.212C39.6399 106.86 40.1545 106.572 40.7305 106.365C41.3065 106.159 41.9327 106.037 42.5731 106.007C43.2135 105.977 43.8557 106.04 44.4629 106.192C45.0701 106.344 45.6304 106.581 46.1118 106.891C56.4489 113.41 69.6816 116.955 83.3355 116.862C94.2838 116.862 100.909 116.328 111.224 113.161C111.815 112.979 112.449 112.884 113.091 112.882C113.732 112.879 114.368 112.969 114.962 113.146C115.556 113.323 116.096 113.584 116.552 113.914C117.008 114.243 117.37 114.635 117.619 115.068C117.867 115.5 117.997 115.963 118 116.432C118.003 116.901 117.88 117.365 117.637 117.799C117.395 118.233 117.038 118.628 116.586 118.961C116.135 119.294 115.598 119.558 115.007 119.74C103.212 123.361 95.3965 123.998 83.3355 123.998Z" fill="#F7FAFC"/>
</svg>
