<svg width="663" height="652" viewBox="0 0 663 652" fill="none" xmlns="http://www.w3.org/2000/svg">
<path d="M271.689 310.416C262.559 307.254 254.019 302.692 246.626 297.026C239.232 291.36 233.151 284.716 228.777 277.528C218.555 260.754 217.531 241.309 225.967 224.179C233.359 208.866 247.624 197.014 266.429 190.561C275.436 187.386 285.518 185.861 296.058 186.078C306.598 186.295 317.373 188.25 327.722 191.823C337.296 195.175 346.239 199.994 353.971 205.966C361.703 211.939 368.051 218.931 372.601 226.487C377.734 235.248 380.695 244.438 381.298 253.477C381.901 262.515 380.133 271.207 376.104 279.003C367.527 296.409 352.605 308.491 332.952 313.94C314.168 319.07 292.252 317.809 271.689 310.416ZM321.638 209.019C292.496 198.708 260.327 209.599 248.402 233.815C242.227 246.353 242.77 260.245 249.89 271.931C252.711 276.603 256.657 280.919 261.466 284.59C266.274 288.261 271.834 291.204 277.774 293.22C304.96 302.84 338.971 299.194 353.67 269.364C356.578 263.846 357.885 257.685 357.509 251.269C357.134 244.852 355.083 238.32 351.486 232.083C348.461 227.056 344.24 222.404 339.097 218.43C333.954 214.457 328.006 211.25 321.638 209.019Z" fill="#F7FAFC"/>
<path d="M382.056 349.471C379.514 348.577 377.037 347.514 374.653 346.295C368.381 343.104 362.766 339.01 358.149 334.261C353.533 329.512 350.011 324.208 347.799 318.673C342.95 306.636 343.881 293.137 350.491 279.634L380.636 218.073C381.717 215.881 383.916 214.283 386.752 213.629C389.588 212.975 392.83 213.318 395.765 214.583C398.699 215.848 401.088 217.932 402.407 220.378C403.725 222.823 403.865 225.43 402.796 227.626L372.651 289.187C364.01 306.838 368.504 322.331 384.672 330.629C390.221 333.477 401.123 335.963 413.585 333.595C426.314 331.176 444.013 323.133 456.05 298.547C469.862 270.343 468.92 241.601 453.324 215.427C436.975 187.988 405.517 165.411 362.35 150.137C283.006 122.061 195.43 146.326 167.128 204.227C161.751 215.102 158.774 226.93 158.314 239.249C158.23 241.735 156.907 243.92 154.636 245.323C152.365 246.727 149.332 247.234 146.204 246.732C143.076 246.231 140.109 244.763 137.956 242.651C135.803 240.539 134.64 237.956 134.724 235.47C135.252 221.124 138.71 207.348 144.964 194.682C161.516 162.334 193.412 138.167 234.608 126.761C275.805 115.356 323.439 117.503 368.486 132.797C418.214 150.393 454.795 176.973 474.273 209.663C492.729 240.638 494.128 275.597 478.21 308.1C463.224 338.711 439.683 349.012 422.574 352.263C409.806 354.903 395.591 353.924 382.056 349.471Z" fill="#F7FAFC"/>
<path d="M250.267 379.108C212.837 366.128 180.371 342.842 158.94 313.605C158.091 312.431 157.506 311.163 157.219 309.873C156.932 308.583 156.949 307.297 157.268 306.088C157.587 304.879 158.203 303.771 159.079 302.827C159.955 301.883 161.076 301.122 162.376 300.587C163.676 300.053 165.131 299.755 166.657 299.711C168.183 299.667 169.75 299.877 171.268 300.331C172.787 300.784 174.228 301.471 175.508 302.352C176.788 303.234 177.882 304.293 178.729 305.468C197.024 330.358 224.709 350.167 256.607 361.191C282.118 370.218 298.03 374.339 324.878 374.892C326.417 374.924 327.98 375.209 329.477 375.731C330.974 376.254 332.375 377.003 333.602 377.938C334.828 378.872 335.855 379.972 336.625 381.176C337.394 382.38 337.891 383.663 338.086 384.953C338.281 386.242 338.171 387.513 337.762 388.693C337.353 389.872 336.653 390.937 335.702 391.826C334.752 392.715 333.569 393.412 332.221 393.876C330.873 394.34 329.388 394.562 327.848 394.529C297.148 393.896 278.371 389.053 250.267 379.108Z" fill="#F7FAFC"/>
<path d="M407.738 436.745C361.324 463.671 304.942 469.609 250.268 453.331C195.593 437.053 146.815 399.804 114.034 349.299C115.827 352.664 117.687 356.014 119.643 359.336C151.196 412.94 200.503 453.297 256.719 471.53C312.935 489.763 371.453 484.379 419.401 456.56C467.349 428.742 500.799 380.769 512.392 323.195C523.986 265.621 512.772 203.162 481.219 149.558C479.264 146.236 477.237 142.983 475.164 139.78C503.395 192.925 512.14 253.4 499.588 308.681C487.036 363.963 454.149 409.816 407.738 436.745Z" fill="#F7FAFC"/>
<path d="M237.465 469.561C196.189 454.956 159.945 429.074 133.318 395.189C106.691 361.305 90.8762 320.939 87.8732 279.196C84.8702 237.453 94.8142 196.208 116.447 160.676C138.081 125.145 170.432 96.9235 209.41 79.5801C248.387 62.2367 292.241 56.5507 335.426 63.241C378.61 69.9313 419.186 88.6974 452.021 117.166C484.856 145.635 508.477 182.528 519.896 223.18C531.314 263.832 530.018 306.417 516.171 345.549C497.604 398.024 457.809 440.57 405.541 463.827C353.273 487.083 292.814 489.146 237.465 469.561ZM374.152 83.2676C334.841 69.3578 292.503 66.812 252.491 75.952C212.479 85.092 176.59 105.507 149.363 134.616C122.135 163.725 104.793 200.221 99.5281 239.488C94.2632 278.754 101.312 319.028 119.784 355.217C138.256 391.406 167.321 421.884 203.304 442.798C239.287 463.711 280.571 474.12 321.936 472.709C363.301 471.298 402.888 458.129 435.693 434.869C468.498 411.609 493.046 379.302 506.234 342.033C514.99 317.287 518.519 290.964 516.62 264.568C514.721 238.171 507.431 212.218 495.166 188.189C482.901 164.161 465.902 142.528 445.138 124.525C424.374 106.523 400.253 92.5034 374.152 83.2676Z" fill="#F7FAFC"/>
<path d="M271.689 310.416C262.559 307.254 254.019 302.692 246.626 297.026C239.232 291.36 233.151 284.716 228.777 277.528C218.555 260.754 217.531 241.309 225.967 224.179C233.359 208.866 247.624 197.014 266.429 190.561C275.436 187.386 285.518 185.861 296.058 186.078C306.598 186.295 317.373 188.25 327.722 191.823C337.296 195.175 346.239 199.994 353.971 205.966C361.703 211.939 368.051 218.931 372.601 226.487C377.734 235.248 380.695 244.438 381.298 253.477C381.901 262.515 380.133 271.207 376.104 279.003C367.527 296.409 352.605 308.491 332.952 313.94C314.168 319.07 292.252 317.809 271.689 310.416ZM321.638 209.019C292.496 198.708 260.327 209.599 248.402 233.815C242.227 246.353 242.77 260.245 249.89 271.931C252.711 276.603 256.657 280.919 261.466 284.59C266.274 288.261 271.834 291.204 277.774 293.22C304.96 302.84 338.971 299.194 353.67 269.364C356.578 263.846 357.885 257.685 357.509 251.269C357.134 244.852 355.083 238.32 351.486 232.083C348.461 227.056 344.24 222.404 339.097 218.43C333.954 214.457 328.006 211.25 321.638 209.019Z" fill="#F7FAFC"/>
<path d="M382.056 349.471C379.514 348.577 377.037 347.514 374.653 346.295C368.381 343.104 362.766 339.01 358.149 334.261C353.533 329.512 350.011 324.208 347.799 318.673C342.95 306.636 343.881 293.137 350.491 279.634L380.636 218.073C381.717 215.881 383.916 214.283 386.752 213.629C389.588 212.975 392.83 213.318 395.765 214.583C398.699 215.848 401.088 217.932 402.407 220.378C403.725 222.823 403.865 225.43 402.796 227.626L372.651 289.187C364.01 306.838 368.504 322.331 384.672 330.629C390.221 333.477 401.123 335.963 413.585 333.595C426.314 331.176 444.013 323.133 456.05 298.547C469.862 270.343 468.92 241.601 453.324 215.427C436.975 187.988 405.517 165.411 362.35 150.137C283.006 122.061 195.43 146.326 167.128 204.227C161.751 215.102 158.774 226.93 158.314 239.249C158.23 241.735 156.907 243.92 154.636 245.323C152.365 246.727 149.332 247.234 146.204 246.732C143.076 246.231 140.109 244.763 137.956 242.651C135.803 240.539 134.64 237.956 134.724 235.47C135.252 221.124 138.71 207.348 144.964 194.682C161.516 162.334 193.412 138.167 234.608 126.761C275.805 115.356 323.439 117.503 368.486 132.797C418.214 150.393 454.795 176.973 474.273 209.663C492.729 240.638 494.128 275.597 478.21 308.1C463.224 338.711 439.683 349.012 422.574 352.263C409.806 354.903 395.591 353.924 382.056 349.471Z" fill="#F7FAFC"/>
<path d="M250.267 379.108C212.837 366.128 180.371 342.842 158.94 313.605C158.091 312.431 157.506 311.163 157.219 309.873C156.932 308.583 156.949 307.297 157.268 306.088C157.587 304.879 158.203 303.771 159.079 302.827C159.955 301.883 161.076 301.122 162.376 300.587C163.676 300.053 165.131 299.755 166.657 299.711C168.183 299.667 169.75 299.877 171.268 300.331C172.787 300.784 174.228 301.471 175.508 302.352C176.788 303.234 177.882 304.293 178.729 305.468C197.024 330.358 224.709 350.167 256.607 361.191C282.118 370.218 298.03 374.339 324.878 374.892C326.417 374.924 327.98 375.209 329.477 375.731C330.974 376.254 332.375 377.003 333.602 377.938C334.828 378.872 335.855 379.972 336.625 381.176C337.394 382.38 337.891 383.663 338.086 384.953C338.281 386.242 338.171 387.513 337.762 388.693C337.353 389.872 336.653 390.937 335.702 391.826C334.752 392.715 333.569 393.412 332.221 393.876C330.873 394.34 329.388 394.562 327.848 394.529C297.148 393.896 278.371 389.053 250.267 379.108Z" fill="#F7FAFC"/>
</svg>
