<svg width="32" height="32" viewBox="0 0 32 32" fill="none" xmlns="http://www.w3.org/2000/svg">
<path d="M31.5 16C31.5 24.5604 24.5604 31.5 16 31.5C7.43959 31.5 0.5 24.5604 0.5 16C0.5 7.43958 7.43959 0.5 16 0.5C24.5604 0.5 31.5 7.43958 31.5 16Z" fill="#EAEFFC" stroke="#168CFD"/>
<path d="M22.9841 14.0408H17.9047V8.81633C17.9047 8.29672 17.7041 7.7984 17.3468 7.43098C16.9896 7.06356 16.5051 6.85714 16 6.85714C15.4948 6.85714 15.0103 7.06356 14.6531 7.43098C14.2959 7.7984 14.0952 8.29672 14.0952 8.81633V14.0408H9.01584C8.51067 14.0408 8.02619 14.2472 7.66898 14.6147C7.31177 14.9821 7.11108 15.4804 7.11108 16C7.11108 16.5196 7.31177 17.0179 7.66898 17.3854C8.02619 17.7528 8.51067 17.9592 9.01584 17.9592H14.0952V23.1837C14.0952 23.7033 14.2959 24.2016 14.6531 24.569C15.0103 24.9365 15.4948 25.1429 16 25.1429C16.5051 25.1429 16.9896 24.9365 17.3468 24.569C17.7041 24.2016 17.9047 23.7033 17.9047 23.1837V17.9592H22.9841C23.4893 17.9592 23.9738 17.7528 24.331 17.3854C24.6882 17.0179 24.8889 16.5196 24.8889 16C24.8889 15.4804 24.6882 14.9821 24.331 14.6147C23.9738 14.2472 23.4893 14.0408 22.9841 14.0408Z" fill="#168CFD"/>
</svg>
