<svg width="32" height="32" viewBox="0 0 32 32" fill="none" xmlns="http://www.w3.org/2000/svg">
<path d="M31.5 16C31.5 24.5604 24.5604 31.5 16 31.5C7.43959 31.5 0.5 24.5604 0.5 16C0.5 7.43958 7.43959 0.5 16 0.5C24.5604 0.5 31.5 7.43958 31.5 16Z" fill="#EAEFFC" stroke="#168CFD"/>
<path d="M6.59036 28L5 27.2584C5.46386 26.1124 6.92169 25.5056 8.57831 24.764C10.1687 24.0225 12.1566 23.1461 12.1566 22.0674V20.5843C11.5602 20.1124 10.6325 19.0337 10.5 17.4831C10.0361 17.0112 9.30723 16.1348 9.30723 15.0562C9.30723 14.382 9.57229 13.8427 9.77108 13.5056C9.63855 12.764 9.37349 11.2809 9.37349 10.1348C9.37349 6.42697 11.8916 4 15.8675 4C16.994 4 18.3855 4.33708 19.1145 5.14607C20.9036 5.48315 22.3614 7.64045 22.3614 10.1348C22.3614 11.7528 22.0964 13.1011 21.8976 13.7079C22.0964 14.0449 22.2952 14.5169 22.2952 15.0562C22.2952 16.3371 21.6988 17.1461 21.1024 17.5506C20.9699 19.1011 20.1084 20.1124 19.5783 20.5843V22.0674C19.5783 23.0112 21.2349 23.618 22.759 24.2247C24.5482 24.8989 26.4036 25.573 27 27.1236L25.3434 27.7303C25.0783 26.9213 23.488 26.382 22.1626 25.8427C20.1084 25.1011 17.7892 24.2247 17.7892 22.0674V19.6404L18.1867 19.3708C18.253 19.3708 19.3795 18.5618 19.3795 17.0112V16.4045L19.9096 16.2022C19.9759 16.1348 20.506 15.8652 20.506 15.0562C20.506 14.7865 20.3072 14.5169 20.241 14.4494L19.9096 14.0449L20.0422 13.573C20.0422 13.573 20.506 12.0899 20.506 10.0674C20.506 8.38202 19.5783 6.83146 18.5843 6.83146H18.0542L17.7892 6.35955C17.5904 6.02247 16.7952 5.68539 15.7349 5.68539C12.753 5.68539 10.9639 7.30337 10.9639 10.0674C10.9639 11.3483 11.4277 13.4382 11.4277 13.4382L11.5602 13.9101L11.2289 14.2472C11.2289 14.2472 10.9639 14.5843 10.9639 14.9213C10.9639 15.3933 11.5602 16 11.8253 16.2697L12.1566 16.5393V17.0112C12.1566 18.4944 13.4157 19.3034 13.4157 19.3034L13.8133 19.573V22C13.8133 24.2247 11.3614 25.3708 9.1747 26.3146C8.24699 26.8539 6.85542 27.5281 6.59036 28Z" fill="#168CFD"/>
</svg>
